{
    "asset" : {
        "generator" : "Khronos glTF Blender I/O v1.7.33",
        "version" : "2.0"
    },
    "scene" : 0,
    "scenes" : [
        {
            "name" : "Scene",
            "nodes" : [
                0,
                1,
                2
            ]
        }
    ],
    "nodes" : [
        {
            "mesh" : 0,
            "name" : "Cylinder.004",
            "rotation" : [
                0,
                0,
                -1,
                -4.371138828673793e-08
            ],
            "scale" : [
                -1.5186200141906738,
                -1.5186200141906738,
                -1.5186200141906738
            ],
            "translation" : [
                0.6490192413330078,
                0.332902193069458,
                -0.16907629370689392
            ]
        },
        {
            "mesh" : 1,
            "name" : "Cylinder.005",
            "rotation" : [
                0,
                0,
                1,
                7.549790126404332e-08
            ],
            "scale" : [
                -1.5186200141906738,
                -1.5186200141906738,
                -1.5186200141906738
            ],
            "translation" : [
                0.6490192413330078,
                0.332902193069458,
                -0.17490123212337494
            ]
        },
        {
            "mesh" : 2,
            "name" : "Cylinder.006",
            "rotation" : [
                0,
                0,
                -1,
                -4.371138828673793e-08
            ],
            "scale" : [
                -1.5186200141906738,
                -1.5186200141906738,
                -1.5186200141906738
            ],
            "translation" : [
                0.6490192413330078,
                0.332902193069458,
                -0.17490123212337494
            ]
        }
    ],
    "materials" : [
        {
            "doubleSided" : true,
            "name" : "Skin",
            "pbrMetallicRoughness" : {
                "baseColorFactor" : [
                    0.8962695598602295,
                    0.18782047927379608,
                    0.13843166828155518,
                    1
                ],
                "metallicFactor" : 0,
                "roughnessFactor" : 0.609375
            }
        },
        {
            "doubleSided" : true,
            "name" : "shirt",
            "pbrMetallicRoughness" : {
                "baseColorFactor" : [
                    1,
                    0.242280974984169,
                    0.022173915058374405,
                    1
                ],
                "metallicFactor" : 0.125,
                "roughnessFactor" : 0.5555617809295654
            }
        },
        {
            "doubleSided" : true,
            "name" : "White",
            "pbrMetallicRoughness" : {
                "baseColorFactor" : [
                    0.7484002113342285,
                    0.7484002113342285,
                    0.7484002113342285,
                    1
                ],
                "metallicFactor" : 0,
                "roughnessFactor" : 0.234375
            }
        }
    ],
    "meshes" : [
        {
            "name" : "Cylinder.012",
            "primitives" : [
                {
                    "attributes" : {
                        "POSITION" : 0,
                        "NORMAL" : 1,
                        "TEXCOORD_0" : 2,
                        "TEXCOORD_1" : 3
                    },
                    "indices" : 4,
                    "material" : 0
                }
            ]
        },
        {
            "name" : "Cylinder.002",
            "primitives" : [
                {
                    "attributes" : {
                        "POSITION" : 5,
                        "NORMAL" : 6,
                        "TEXCOORD_0" : 7
                    },
                    "indices" : 8,
                    "material" : 1
                }
            ]
        },
        {
            "name" : "Cylinder.004",
            "primitives" : [
                {
                    "attributes" : {
                        "POSITION" : 9,
                        "NORMAL" : 10,
                        "TEXCOORD_0" : 11
                    },
                    "indices" : 12,
                    "material" : 2
                }
            ]
        }
    ],
    "accessors" : [
        {
            "bufferView" : 0,
            "componentType" : 5126,
            "count" : 27466,
            "max" : [
                -0.2338588833808899,
                0.47729063034057617,
                0.0484369695186615
            ],
            "min" : [
                -0.5269994735717773,
                0.02601710706949234,
                -0.18077810108661652
            ],
            "type" : "VEC3"
        },
        {
            "bufferView" : 1,
            "componentType" : 5126,
            "count" : 27466,
            "type" : "VEC3"
        },
        {
            "bufferView" : 2,
            "componentType" : 5126,
            "count" : 27466,
            "type" : "VEC2"
        },
        {
            "bufferView" : 3,
            "componentType" : 5126,
            "count" : 27466,
            "type" : "VEC2"
        },
        {
            "bufferView" : 4,
            "componentType" : 5123,
            "count" : 123456,
            "type" : "SCALAR"
        },
        {
            "bufferView" : 5,
            "componentType" : 5126,
            "count" : 4426,
            "max" : [
                -0.2817525863647461,
                0.15403887629508972,
                0.061897892504930496
            ],
            "min" : [
                -0.5234845876693726,
                0.007439156994223595,
                -0.16454395651817322
            ],
            "type" : "VEC3"
        },
        {
            "bufferView" : 6,
            "componentType" : 5126,
            "count" : 4426,
            "type" : "VEC3"
        },
        {
            "bufferView" : 7,
            "componentType" : 5126,
            "count" : 4426,
            "type" : "VEC2"
        },
        {
            "bufferView" : 8,
            "componentType" : 5123,
            "count" : 20736,
            "type" : "SCALAR"
        },
        {
            "bufferView" : 9,
            "componentType" : 5126,
            "count" : 1729,
            "max" : [
                -0.28860944509506226,
                0.17778058350086212,
                0.04980117082595825
            ],
            "min" : [
                -0.5118392705917358,
                0.1207849532365799,
                -0.1532479226589203
            ],
            "type" : "VEC3"
        },
        {
            "bufferView" : 10,
            "componentType" : 5126,
            "count" : 1729,
            "type" : "VEC3"
        },
        {
            "bufferView" : 11,
            "componentType" : 5126,
            "count" : 1729,
            "type" : "VEC2"
        },
        {
            "bufferView" : 12,
            "componentType" : 5123,
            "count" : 10176,
            "type" : "SCALAR"
        }
    ],
    "bufferViews" : [
        {
            "buffer" : 0,
            "byteLength" : 329592,
            "byteOffset" : 0
        },
        {
            "buffer" : 0,
            "byteLength" : 329592,
            "byteOffset" : 329592
        },
        {
            "buffer" : 0,
            "byteLength" : 219728,
            "byteOffset" : 659184
        },
        {
            "buffer" : 0,
            "byteLength" : 219728,
            "byteOffset" : 878912
        },
        {
            "buffer" : 0,
            "byteLength" : 246912,
            "byteOffset" : 1098640
        },
        {
            "buffer" : 0,
            "byteLength" : 53112,
            "byteOffset" : 1345552
        },
        {
            "buffer" : 0,
            "byteLength" : 53112,
            "byteOffset" : 1398664
        },
        {
            "buffer" : 0,
            "byteLength" : 35408,
            "byteOffset" : 1451776
        },
        {
            "buffer" : 0,
            "byteLength" : 41472,
            "byteOffset" : 1487184
        },
        {
            "buffer" : 0,
            "byteLength" : 20748,
            "byteOffset" : 1528656
        },
        {
            "buffer" : 0,
            "byteLength" : 20748,
            "byteOffset" : 1549404
        },
        {
            "buffer" : 0,
            "byteLength" : 13832,
            "byteOffset" : 1570152
        },
        {
            "buffer" : 0,
            "byteLength" : 20352,
            "byteOffset" : 1583984
        }
    ],
    "buffers" : [
        {
            "byteLength" : 1604336,
            "uri" : "data:application/octet-stream;base64,"
        }
    ]
}
